<?xml version="1.0" encoding="UTF-8" standalone="no"?>
<!DOCTYPE svg PUBLIC "-//W3C//DTD SVG 1.1//EN"
 "http://www.w3.org/Graphics/SVG/1.1/DTD/svg11.dtd">
<!-- Generated by graphviz version 2.47.2 (0)
 -->
<!-- Title: snakemake_dag Pages: 1 -->
<svg width="2163pt" height="404pt"
 viewBox="0.00 0.00 2163.00 404.00" xmlns="http://www.w3.org/2000/svg" xmlns:xlink="http://www.w3.org/1999/xlink">
<g id="graph0" class="graph" transform="scale(1 1) rotate(0) translate(4 400)">
<title>snakemake_dag</title>
<polygon fill="white" stroke="transparent" points="-4,4 -4,-400 2159,-400 2159,4 -4,4"/>
<!-- 0 -->
<g id="node1" class="node">
<title>0</title>
<path fill="none" stroke="#56d86b" stroke-width="2" d="M1291,-36C1291,-36 1261,-36 1261,-36 1255,-36 1249,-30 1249,-24 1249,-24 1249,-12 1249,-12 1249,-6 1255,0 1261,0 1261,0 1291,0 1291,0 1297,0 1303,-6 1303,-12 1303,-12 1303,-24 1303,-24 1303,-30 1297,-36 1291,-36"/>
<text text-anchor="middle" x="1276" y="-15.5" font-family="sans" font-size="10.00">all</text>
</g>
<!-- 1 -->
<g id="node2" class="node">
<title>1</title>
<path fill="none" stroke="#d88556" stroke-width="2" stroke-dasharray="5,2" d="M763.5,-108C763.5,-108 710.5,-108 710.5,-108 704.5,-108 698.5,-102 698.5,-96 698.5,-96 698.5,-84 698.5,-84 698.5,-78 704.5,-72 710.5,-72 710.5,-72 763.5,-72 763.5,-72 769.5,-72 775.5,-78 775.5,-84 775.5,-84 775.5,-96 775.5,-96 775.5,-102 769.5,-108 763.5,-108"/>
<text text-anchor="middle" x="737" y="-87.5" font-family="sans" font-size="10.00">reads_multiqc</text>
</g>
<!-- 1&#45;&gt;0 -->
<g id="edge1" class="edge">
<title>1&#45;&gt;0</title>
<path fill="none" stroke="grey" stroke-width="2" d="M775.76,-83.97C875.68,-70.99 1140.98,-36.54 1238.96,-23.81"/>
<polygon fill="grey" stroke="grey" stroke-width="2" points="1239.52,-27.27 1248.99,-22.51 1238.62,-20.33 1239.52,-27.27"/>
</g>
<!-- 2 -->
<g id="node3" class="node">
<title>2</title>
<path fill="none" stroke="#56d89a" stroke-width="2" stroke-dasharray="5,2" d="M178,-180C178,-180 12,-180 12,-180 6,-180 0,-174 0,-168 0,-168 0,-156 0,-156 0,-150 6,-144 12,-144 12,-144 178,-144 178,-144 184,-144 190,-150 190,-156 190,-156 190,-168 190,-168 190,-174 184,-180 178,-180"/>
<text text-anchor="middle" x="95" y="-165" font-family="sans" font-size="10.00">reads_fastqc</text>
<text text-anchor="middle" x="95" y="-154" font-family="sans" font-size="10.00">sample: GSM1102782_CD14_H3K27ac</text>
</g>
<!-- 2&#45;&gt;0 -->
<g id="edge2" class="edge">
<title>2&#45;&gt;0</title>
<path fill="none" stroke="grey" stroke-width="2" d="M151.76,-143.94C223.19,-123.23 349.98,-88.98 461,-72 758.32,-26.53 1122.5,-20.03 1238.59,-19.13"/>
<polygon fill="grey" stroke="grey" stroke-width="2" points="1238.75,-22.63 1248.73,-19.06 1238.71,-15.63 1238.75,-22.63"/>
</g>
<!-- 2&#45;&gt;1 -->
<g id="edge20" class="edge">
<title>2&#45;&gt;1</title>
<path fill="none" stroke="grey" stroke-width="2" d="M190.18,-145.19C193.15,-144.78 196.1,-144.38 199,-144 378.85,-120.47 593.75,-102.26 688.3,-94.75"/>
<polygon fill="grey" stroke="grey" stroke-width="2" points="688.72,-98.23 698.41,-93.95 688.17,-91.25 688.72,-98.23"/>
</g>
<!-- 3 -->
<g id="node4" class="node">
<title>3</title>
<path fill="none" stroke="#56d89a" stroke-width="2" stroke-dasharray="5,2" d="M394,-180C394,-180 220,-180 220,-180 214,-180 208,-174 208,-168 208,-168 208,-156 208,-156 208,-150 214,-144 220,-144 220,-144 394,-144 394,-144 400,-144 406,-150 406,-156 406,-156 406,-168 406,-168 406,-174 400,-180 394,-180"/>
<text text-anchor="middle" x="307" y="-165" font-family="sans" font-size="10.00">reads_fastqc</text>
<text text-anchor="middle" x="307" y="-154" font-family="sans" font-size="10.00">sample: GSM1102785_CD14_H3K27me3</text>
</g>
<!-- 3&#45;&gt;0 -->
<g id="edge3" class="edge">
<title>3&#45;&gt;0</title>
<path fill="none" stroke="grey" stroke-width="2" d="M352.96,-143.96C410.87,-123.26 513.84,-89.01 605,-72 843.53,-27.48 1136.58,-20.31 1238.76,-19.19"/>
<polygon fill="grey" stroke="grey" stroke-width="2" points="1238.92,-22.69 1248.88,-19.1 1238.85,-15.69 1238.92,-22.69"/>
</g>
<!-- 3&#45;&gt;1 -->
<g id="edge21" class="edge">
<title>3&#45;&gt;1</title>
<path fill="none" stroke="grey" stroke-width="2" d="M406.19,-144.85C494.54,-130.47 620.08,-110.03 688.3,-98.93"/>
<polygon fill="grey" stroke="grey" stroke-width="2" points="689.03,-102.36 698.34,-97.29 687.9,-95.45 689.03,-102.36"/>
</g>
<!-- 4 -->
<g id="node5" class="node">
<title>4</title>
<path fill="none" stroke="#56d89a" stroke-width="2" stroke-dasharray="5,2" d="M610,-180C610,-180 436,-180 436,-180 430,-180 424,-174 424,-168 424,-168 424,-156 424,-156 424,-150 430,-144 436,-144 436,-144 610,-144 610,-144 616,-144 622,-150 622,-156 622,-156 622,-168 622,-168 622,-174 616,-180 610,-180"/>
<text text-anchor="middle" x="523" y="-165" font-family="sans" font-size="10.00">reads_fastqc</text>
<text text-anchor="middle" x="523" y="-154" font-family="sans" font-size="10.00">sample: GSM1102788_CD14_H3K36me3</text>
</g>
<!-- 4&#45;&gt;0 -->
<g id="edge4" class="edge">
<title>4&#45;&gt;0</title>
<path fill="none" stroke="grey" stroke-width="2" d="M547.21,-143.94C578.38,-122.97 634.97,-88.19 689,-72 792.74,-40.92 1126.24,-25 1238.63,-20.42"/>
<polygon fill="grey" stroke="grey" stroke-width="2" points="1238.95,-23.91 1248.8,-20.01 1238.66,-16.92 1238.95,-23.91"/>
</g>
<!-- 4&#45;&gt;1 -->
<g id="edge22" class="edge">
<title>4&#45;&gt;1</title>
<path fill="none" stroke="grey" stroke-width="2" d="M575.08,-143.97C609.65,-132.66 654.71,-117.92 688.52,-106.86"/>
<polygon fill="grey" stroke="grey" stroke-width="2" points="689.76,-110.13 698.18,-103.7 687.59,-103.48 689.76,-110.13"/>
</g>
<!-- 5 -->
<g id="node6" class="node">
<title>5</title>
<path fill="none" stroke="#56d89a" stroke-width="2" stroke-dasharray="5,2" d="M821.5,-180C821.5,-180 652.5,-180 652.5,-180 646.5,-180 640.5,-174 640.5,-168 640.5,-168 640.5,-156 640.5,-156 640.5,-150 646.5,-144 652.5,-144 652.5,-144 821.5,-144 821.5,-144 827.5,-144 833.5,-150 833.5,-156 833.5,-156 833.5,-168 833.5,-168 833.5,-174 827.5,-180 821.5,-180"/>
<text text-anchor="middle" x="737" y="-165" font-family="sans" font-size="10.00">reads_fastqc</text>
<text text-anchor="middle" x="737" y="-154" font-family="sans" font-size="10.00">sample: GSM1102793_CD14_H3K4me1</text>
</g>
<!-- 5&#45;&gt;0 -->
<g id="edge5" class="edge">
<title>5&#45;&gt;0</title>
<path fill="none" stroke="grey" stroke-width="2" d="M784.02,-143.87C838.21,-124.56 930.19,-93.13 1011,-72 1091.26,-51.02 1187.07,-33.73 1238.66,-25.05"/>
<polygon fill="grey" stroke="grey" stroke-width="2" points="1239.39,-28.48 1248.68,-23.38 1238.24,-21.57 1239.39,-28.48"/>
</g>
<!-- 5&#45;&gt;1 -->
<g id="edge23" class="edge">
<title>5&#45;&gt;1</title>
<path fill="none" stroke="grey" stroke-width="2" d="M737,-143.7C737,-135.98 737,-126.71 737,-118.11"/>
<polygon fill="grey" stroke="grey" stroke-width="2" points="740.5,-118.1 737,-108.1 733.5,-118.1 740.5,-118.1"/>
</g>
<!-- 6 -->
<g id="node7" class="node">
<title>6</title>
<path fill="none" stroke="#56d89a" stroke-width="2" stroke-dasharray="5,2" d="M1032.5,-180C1032.5,-180 863.5,-180 863.5,-180 857.5,-180 851.5,-174 851.5,-168 851.5,-168 851.5,-156 851.5,-156 851.5,-150 857.5,-144 863.5,-144 863.5,-144 1032.5,-144 1032.5,-144 1038.5,-144 1044.5,-150 1044.5,-156 1044.5,-156 1044.5,-168 1044.5,-168 1044.5,-174 1038.5,-180 1032.5,-180"/>
<text text-anchor="middle" x="948" y="-165" font-family="sans" font-size="10.00">reads_fastqc</text>
<text text-anchor="middle" x="948" y="-154" font-family="sans" font-size="10.00">sample: GSM1102797_CD14_H3K4me3</text>
</g>
<!-- 6&#45;&gt;0 -->
<g id="edge6" class="edge">
<title>6&#45;&gt;0</title>
<path fill="none" stroke="grey" stroke-width="2" d="M967,-143.72C990,-123.67 1030.69,-90.96 1071,-72 1126.35,-45.96 1196.36,-31.38 1238.58,-24.36"/>
<polygon fill="grey" stroke="grey" stroke-width="2" points="1239.37,-27.78 1248.69,-22.74 1238.26,-20.87 1239.37,-27.78"/>
</g>
<!-- 6&#45;&gt;1 -->
<g id="edge24" class="edge">
<title>6&#45;&gt;1</title>
<path fill="none" stroke="grey" stroke-width="2" d="M896.65,-143.97C862.68,-132.69 818.43,-118.01 785.13,-106.97"/>
<polygon fill="grey" stroke="grey" stroke-width="2" points="786.2,-103.64 775.61,-103.81 784,-110.28 786.2,-103.64"/>
</g>
<!-- 7 -->
<g id="node8" class="node">
<title>7</title>
<path fill="none" stroke="#56d89a" stroke-width="2" stroke-dasharray="5,2" d="M1221,-180C1221,-180 1075,-180 1075,-180 1069,-180 1063,-174 1063,-168 1063,-168 1063,-156 1063,-156 1063,-150 1069,-144 1075,-144 1075,-144 1221,-144 1221,-144 1227,-144 1233,-150 1233,-156 1233,-156 1233,-168 1233,-168 1233,-174 1227,-180 1221,-180"/>
<text text-anchor="middle" x="1148" y="-165" font-family="sans" font-size="10.00">reads_fastqc</text>
<text text-anchor="middle" x="1148" y="-154" font-family="sans" font-size="10.00">sample: GSM1102807_CD14_input</text>
</g>
<!-- 7&#45;&gt;0 -->
<g id="edge7" class="edge">
<title>7&#45;&gt;0</title>
<path fill="none" stroke="grey" stroke-width="2" d="M1115.95,-143.88C1102.88,-135.05 1089.18,-122.97 1082,-108 1075.08,-93.57 1072.29,-84.72 1082,-72 1100.93,-47.21 1187.95,-31.2 1238.79,-23.8"/>
<polygon fill="grey" stroke="grey" stroke-width="2" points="1239.33,-27.26 1248.74,-22.39 1238.35,-20.32 1239.33,-27.26"/>
</g>
<!-- 7&#45;&gt;1 -->
<g id="edge25" class="edge">
<title>7&#45;&gt;1</title>
<path fill="none" stroke="grey" stroke-width="2" d="M1062.95,-145.57C1059.93,-145.04 1056.94,-144.51 1054,-144 958.97,-127.46 847.72,-109.09 785.5,-98.9"/>
<polygon fill="grey" stroke="grey" stroke-width="2" points="786.01,-95.44 775.58,-97.28 784.88,-102.35 786.01,-95.44"/>
</g>
<!-- 8 -->
<g id="node9" class="node">
<title>8</title>
<path fill="none" stroke="#70d856" stroke-width="2" stroke-dasharray="5,2" d="M1219,-108C1219,-108 1175,-108 1175,-108 1169,-108 1163,-102 1163,-96 1163,-96 1163,-84 1163,-84 1163,-78 1169,-72 1175,-72 1175,-72 1219,-72 1219,-72 1225,-72 1231,-78 1231,-84 1231,-84 1231,-96 1231,-96 1231,-102 1225,-108 1219,-108"/>
<text text-anchor="middle" x="1197" y="-87.5" font-family="sans" font-size="10.00">bam_bigwig</text>
</g>
<!-- 8&#45;&gt;0 -->
<g id="edge8" class="edge">
<title>8&#45;&gt;0</title>
<path fill="none" stroke="grey" stroke-width="2" d="M1216.53,-71.7C1226.38,-62.97 1238.49,-52.24 1249.2,-42.75"/>
<polygon fill="grey" stroke="grey" stroke-width="2" points="1251.53,-45.36 1256.7,-36.1 1246.89,-40.12 1251.53,-45.36"/>
</g>
<!-- 9 -->
<g id="node10" class="node">
<title>9</title>
<path fill="none" stroke="#56d8c9" stroke-width="2" stroke-dasharray="5,2" d="M1296.5,-180C1296.5,-180 1263.5,-180 1263.5,-180 1257.5,-180 1251.5,-174 1251.5,-168 1251.5,-168 1251.5,-156 1251.5,-156 1251.5,-150 1257.5,-144 1263.5,-144 1263.5,-144 1296.5,-144 1296.5,-144 1302.5,-144 1308.5,-150 1308.5,-156 1308.5,-156 1308.5,-168 1308.5,-168 1308.5,-174 1302.5,-180 1296.5,-180"/>
<text text-anchor="middle" x="1280" y="-159.5" font-family="sans" font-size="10.00">bam_sort</text>
</g>
<!-- 9&#45;&gt;8 -->
<g id="edge26" class="edge">
<title>9&#45;&gt;8</title>
<path fill="none" stroke="grey" stroke-width="2" d="M1259.48,-143.7C1249.13,-134.97 1236.41,-124.24 1225.16,-114.75"/>
<polygon fill="grey" stroke="grey" stroke-width="2" points="1227.18,-111.88 1217.28,-108.1 1222.67,-117.23 1227.18,-111.88"/>
</g>
<!-- 28 -->
<g id="node29" class="node">
<title>28</title>
<path fill="none" stroke="#ced856" stroke-width="2" d="M1133,-108C1133,-108 1103,-108 1103,-108 1097,-108 1091,-102 1091,-96 1091,-96 1091,-84 1091,-84 1091,-78 1097,-72 1103,-72 1103,-72 1133,-72 1133,-72 1139,-72 1145,-78 1145,-84 1145,-84 1145,-96 1145,-96 1145,-102 1139,-108 1133,-108"/>
<text text-anchor="middle" x="1118" y="-87.5" font-family="sans" font-size="10.00">callpeak</text>
</g>
<!-- 9&#45;&gt;28 -->
<g id="edge45" class="edge">
<title>9&#45;&gt;28</title>
<path fill="none" stroke="grey" stroke-width="2" d="M1251.41,-148.09C1248.24,-146.7 1245.06,-145.31 1242,-144 1205.81,-128.51 1194.24,-125.41 1154.32,-108.03"/>
<polygon fill="grey" stroke="grey" stroke-width="2" points="1155.62,-104.78 1145.06,-103.96 1152.81,-111.19 1155.62,-104.78"/>
</g>
<!-- 10 -->
<g id="node11" class="node">
<title>10</title>
<path fill="none" stroke="#d8b456" stroke-width="2" stroke-dasharray="5,2" d="M1100,-252C1100,-252 934,-252 934,-252 928,-252 922,-246 922,-240 922,-240 922,-228 922,-228 922,-222 928,-216 934,-216 934,-216 1100,-216 1100,-216 1106,-216 1112,-222 1112,-228 1112,-228 1112,-240 1112,-240 1112,-246 1106,-252 1100,-252"/>
<text text-anchor="middle" x="1017" y="-237" font-family="sans" font-size="10.00">align_reads_se</text>
<text text-anchor="middle" x="1017" y="-226" font-family="sans" font-size="10.00">sample: GSM1102782_CD14_H3K27ac</text>
</g>
<!-- 10&#45;&gt;9 -->
<g id="edge27" class="edge">
<title>10&#45;&gt;9</title>
<path fill="none" stroke="grey" stroke-width="2" d="M1106.52,-215.99C1145.69,-207.57 1192.16,-196.28 1241.59,-179.82"/>
<polygon fill="grey" stroke="grey" stroke-width="2" points="1242.83,-183.09 1251.18,-176.57 1240.59,-176.46 1242.83,-183.09"/>
</g>
<!-- 11 -->
<g id="node12" class="node">
<title>11</title>
<path fill="none" stroke="#d85656" stroke-width="2" stroke-dasharray="5,2" d="M1579.5,-324C1579.5,-324 1524.5,-324 1524.5,-324 1518.5,-324 1512.5,-318 1512.5,-312 1512.5,-312 1512.5,-300 1512.5,-300 1512.5,-294 1518.5,-288 1524.5,-288 1524.5,-288 1579.5,-288 1579.5,-288 1585.5,-288 1591.5,-294 1591.5,-300 1591.5,-300 1591.5,-312 1591.5,-312 1591.5,-318 1585.5,-324 1579.5,-324"/>
<text text-anchor="middle" x="1552" y="-303.5" font-family="sans" font-size="10.00">bowtie2_index</text>
</g>
<!-- 11&#45;&gt;10 -->
<g id="edge28" class="edge">
<title>11&#45;&gt;10</title>
<path fill="none" stroke="grey" stroke-width="2" d="M1512.41,-300.66C1438.12,-292.41 1272.51,-273.47 1122.51,-252.19"/>
<polygon fill="grey" stroke="grey" stroke-width="2" points="1122.59,-248.66 1112.19,-250.72 1121.6,-255.59 1122.59,-248.66"/>
</g>
<!-- 15 -->
<g id="node16" class="node">
<title>15</title>
<path fill="none" stroke="#d8b456" stroke-width="2" stroke-dasharray="5,2" d="M1316,-252C1316,-252 1142,-252 1142,-252 1136,-252 1130,-246 1130,-240 1130,-240 1130,-228 1130,-228 1130,-222 1136,-216 1142,-216 1142,-216 1316,-216 1316,-216 1322,-216 1328,-222 1328,-228 1328,-228 1328,-240 1328,-240 1328,-246 1322,-252 1316,-252"/>
<text text-anchor="middle" x="1229" y="-237" font-family="sans" font-size="10.00">align_reads_se</text>
<text text-anchor="middle" x="1229" y="-226" font-family="sans" font-size="10.00">sample: GSM1102785_CD14_H3K27me3</text>
</g>
<!-- 11&#45;&gt;15 -->
<g id="edge32" class="edge">
<title>11&#45;&gt;15</title>
<path fill="none" stroke="grey" stroke-width="2" d="M1512.39,-296.42C1464.18,-285.97 1381.32,-268.01 1317.62,-254.2"/>
<polygon fill="grey" stroke="grey" stroke-width="2" points="1318.08,-250.72 1307.56,-252.03 1316.59,-257.56 1318.08,-250.72"/>
</g>
<!-- 18 -->
<g id="node19" class="node">
<title>18</title>
<path fill="none" stroke="#d8b456" stroke-width="2" stroke-dasharray="5,2" d="M1532,-252C1532,-252 1358,-252 1358,-252 1352,-252 1346,-246 1346,-240 1346,-240 1346,-228 1346,-228 1346,-222 1352,-216 1358,-216 1358,-216 1532,-216 1532,-216 1538,-216 1544,-222 1544,-228 1544,-228 1544,-240 1544,-240 1544,-246 1538,-252 1532,-252"/>
<text text-anchor="middle" x="1445" y="-237" font-family="sans" font-size="10.00">align_reads_se</text>
<text text-anchor="middle" x="1445" y="-226" font-family="sans" font-size="10.00">sample: GSM1102788_CD14_H3K36me3</text>
</g>
<!-- 11&#45;&gt;18 -->
<g id="edge35" class="edge">
<title>11&#45;&gt;18</title>
<path fill="none" stroke="grey" stroke-width="2" d="M1525.82,-287.88C1511.96,-278.81 1494.76,-267.55 1479.79,-257.76"/>
<polygon fill="grey" stroke="grey" stroke-width="2" points="1481.56,-254.74 1471.28,-252.19 1477.73,-260.59 1481.56,-254.74"/>
</g>
<!-- 21 -->
<g id="node22" class="node">
<title>21</title>
<path fill="none" stroke="#d8b456" stroke-width="2" stroke-dasharray="5,2" d="M1743.5,-252C1743.5,-252 1574.5,-252 1574.5,-252 1568.5,-252 1562.5,-246 1562.5,-240 1562.5,-240 1562.5,-228 1562.5,-228 1562.5,-222 1568.5,-216 1574.5,-216 1574.5,-216 1743.5,-216 1743.5,-216 1749.5,-216 1755.5,-222 1755.5,-228 1755.5,-228 1755.5,-240 1755.5,-240 1755.5,-246 1749.5,-252 1743.5,-252"/>
<text text-anchor="middle" x="1659" y="-237" font-family="sans" font-size="10.00">align_reads_se</text>
<text text-anchor="middle" x="1659" y="-226" font-family="sans" font-size="10.00">sample: GSM1102793_CD14_H3K4me1</text>
</g>
<!-- 11&#45;&gt;21 -->
<g id="edge38" class="edge">
<title>11&#45;&gt;21</title>
<path fill="none" stroke="grey" stroke-width="2" d="M1578.18,-287.88C1592.04,-278.81 1609.24,-267.55 1624.21,-257.76"/>
<polygon fill="grey" stroke="grey" stroke-width="2" points="1626.27,-260.59 1632.72,-252.19 1622.44,-254.74 1626.27,-260.59"/>
</g>
<!-- 24 -->
<g id="node25" class="node">
<title>24</title>
<path fill="none" stroke="#d8b456" stroke-width="2" stroke-dasharray="5,2" d="M1954.5,-252C1954.5,-252 1785.5,-252 1785.5,-252 1779.5,-252 1773.5,-246 1773.5,-240 1773.5,-240 1773.5,-228 1773.5,-228 1773.5,-222 1779.5,-216 1785.5,-216 1785.5,-216 1954.5,-216 1954.5,-216 1960.5,-216 1966.5,-222 1966.5,-228 1966.5,-228 1966.5,-240 1966.5,-240 1966.5,-246 1960.5,-252 1954.5,-252"/>
<text text-anchor="middle" x="1870" y="-237" font-family="sans" font-size="10.00">align_reads_se</text>
<text text-anchor="middle" x="1870" y="-226" font-family="sans" font-size="10.00">sample: GSM1102797_CD14_H3K4me3</text>
</g>
<!-- 11&#45;&gt;24 -->
<g id="edge41" class="edge">
<title>11&#45;&gt;24</title>
<path fill="none" stroke="grey" stroke-width="2" d="M1591.63,-296.28C1639.2,-285.8 1720.37,-267.94 1782.82,-254.19"/>
<polygon fill="grey" stroke="grey" stroke-width="2" points="1783.66,-257.59 1792.67,-252.02 1782.15,-250.75 1783.66,-257.59"/>
</g>
<!-- 27 -->
<g id="node28" class="node">
<title>27</title>
<path fill="none" stroke="#d8b456" stroke-width="2" stroke-dasharray="5,2" d="M2143,-252C2143,-252 1997,-252 1997,-252 1991,-252 1985,-246 1985,-240 1985,-240 1985,-228 1985,-228 1985,-222 1991,-216 1997,-216 1997,-216 2143,-216 2143,-216 2149,-216 2155,-222 2155,-228 2155,-228 2155,-240 2155,-240 2155,-246 2149,-252 2143,-252"/>
<text text-anchor="middle" x="2070" y="-237" font-family="sans" font-size="10.00">align_reads_se</text>
<text text-anchor="middle" x="2070" y="-226" font-family="sans" font-size="10.00">sample: GSM1102807_CD14_input</text>
</g>
<!-- 11&#45;&gt;27 -->
<g id="edge44" class="edge">
<title>11&#45;&gt;27</title>
<path fill="none" stroke="grey" stroke-width="2" d="M1591.56,-300.78C1664.98,-292.8 1827.5,-274.39 1974.85,-252.13"/>
<polygon fill="grey" stroke="grey" stroke-width="2" points="1975.62,-255.55 1984.98,-250.59 1974.57,-248.63 1975.62,-255.55"/>
</g>
<!-- 12 -->
<g id="node13" class="node">
<title>12</title>
<path fill="none" stroke="#9fd856" stroke-width="2" stroke-dasharray="5,2" d="M1592,-396C1592,-396 1512,-396 1512,-396 1506,-396 1500,-390 1500,-384 1500,-384 1500,-372 1500,-372 1500,-366 1506,-360 1512,-360 1512,-360 1592,-360 1592,-360 1598,-360 1604,-366 1604,-372 1604,-372 1604,-384 1604,-384 1604,-390 1598,-396 1592,-396"/>
<text text-anchor="middle" x="1552" y="-381" font-family="sans" font-size="10.00">download_reference</text>
<text text-anchor="middle" x="1552" y="-370" font-family="sans" font-size="10.00">genome: hg19</text>
</g>
<!-- 12&#45;&gt;11 -->
<g id="edge29" class="edge">
<title>12&#45;&gt;11</title>
<path fill="none" stroke="grey" stroke-width="2" d="M1552,-359.7C1552,-351.98 1552,-342.71 1552,-334.11"/>
<polygon fill="grey" stroke="grey" stroke-width="2" points="1555.5,-334.1 1552,-324.1 1548.5,-334.1 1555.5,-334.1"/>
</g>
<!-- 13 -->
<g id="node14" class="node">
<title>13</title>
<path fill="none" stroke="#70d856" stroke-width="2" stroke-dasharray="5,2" d="M1377,-108C1377,-108 1333,-108 1333,-108 1327,-108 1321,-102 1321,-96 1321,-96 1321,-84 1321,-84 1321,-78 1327,-72 1333,-72 1333,-72 1377,-72 1377,-72 1383,-72 1389,-78 1389,-84 1389,-84 1389,-96 1389,-96 1389,-102 1383,-108 1377,-108"/>
<text text-anchor="middle" x="1355" y="-87.5" font-family="sans" font-size="10.00">bam_bigwig</text>
</g>
<!-- 13&#45;&gt;0 -->
<g id="edge9" class="edge">
<title>13&#45;&gt;0</title>
<path fill="none" stroke="grey" stroke-width="2" d="M1335.47,-71.7C1325.62,-62.97 1313.51,-52.24 1302.8,-42.75"/>
<polygon fill="grey" stroke="grey" stroke-width="2" points="1305.11,-40.12 1295.3,-36.1 1300.47,-45.36 1305.11,-40.12"/>
</g>
<!-- 14 -->
<g id="node15" class="node">
<title>14</title>
<path fill="none" stroke="#56d8c9" stroke-width="2" stroke-dasharray="5,2" d="M1371.5,-180C1371.5,-180 1338.5,-180 1338.5,-180 1332.5,-180 1326.5,-174 1326.5,-168 1326.5,-168 1326.5,-156 1326.5,-156 1326.5,-150 1332.5,-144 1338.5,-144 1338.5,-144 1371.5,-144 1371.5,-144 1377.5,-144 1383.5,-150 1383.5,-156 1383.5,-156 1383.5,-168 1383.5,-168 1383.5,-174 1377.5,-180 1371.5,-180"/>
<text text-anchor="middle" x="1355" y="-159.5" font-family="sans" font-size="10.00">bam_sort</text>
</g>
<!-- 14&#45;&gt;13 -->
<g id="edge30" class="edge">
<title>14&#45;&gt;13</title>
<path fill="none" stroke="grey" stroke-width="2" d="M1355,-143.7C1355,-135.98 1355,-126.71 1355,-118.11"/>
<polygon fill="grey" stroke="grey" stroke-width="2" points="1358.5,-118.1 1355,-108.1 1351.5,-118.1 1358.5,-118.1"/>
</g>
<!-- 29 -->
<g id="node30" class="node">
<title>29</title>
<path fill="none" stroke="#ced856" stroke-width="2" d="M1291,-108C1291,-108 1261,-108 1261,-108 1255,-108 1249,-102 1249,-96 1249,-96 1249,-84 1249,-84 1249,-78 1255,-72 1261,-72 1261,-72 1291,-72 1291,-72 1297,-72 1303,-78 1303,-84 1303,-84 1303,-96 1303,-96 1303,-102 1297,-108 1291,-108"/>
<text text-anchor="middle" x="1276" y="-87.5" font-family="sans" font-size="10.00">callpeak</text>
</g>
<!-- 14&#45;&gt;29 -->
<g id="edge46" class="edge">
<title>14&#45;&gt;29</title>
<path fill="none" stroke="grey" stroke-width="2" d="M1335.47,-143.7C1325.62,-134.97 1313.51,-124.24 1302.8,-114.75"/>
<polygon fill="grey" stroke="grey" stroke-width="2" points="1305.11,-112.12 1295.3,-108.1 1300.47,-117.36 1305.11,-112.12"/>
</g>
<!-- 15&#45;&gt;14 -->
<g id="edge31" class="edge">
<title>15&#45;&gt;14</title>
<path fill="none" stroke="grey" stroke-width="2" d="M1259.82,-215.88C1277.15,-206.25 1298.91,-194.16 1317.26,-183.97"/>
<polygon fill="grey" stroke="grey" stroke-width="2" points="1319.18,-186.9 1326.22,-178.99 1315.78,-180.78 1319.18,-186.9"/>
</g>
<!-- 16 -->
<g id="node17" class="node">
<title>16</title>
<path fill="none" stroke="#70d856" stroke-width="2" stroke-dasharray="5,2" d="M1535,-108C1535,-108 1491,-108 1491,-108 1485,-108 1479,-102 1479,-96 1479,-96 1479,-84 1479,-84 1479,-78 1485,-72 1491,-72 1491,-72 1535,-72 1535,-72 1541,-72 1547,-78 1547,-84 1547,-84 1547,-96 1547,-96 1547,-102 1541,-108 1535,-108"/>
<text text-anchor="middle" x="1513" y="-87.5" font-family="sans" font-size="10.00">bam_bigwig</text>
</g>
<!-- 16&#45;&gt;0 -->
<g id="edge10" class="edge">
<title>16&#45;&gt;0</title>
<path fill="none" stroke="grey" stroke-width="2" d="M1478.86,-75.11C1475.88,-74.02 1472.89,-72.96 1470,-72 1416.18,-54.07 1352.53,-37.55 1313.21,-27.87"/>
<polygon fill="grey" stroke="grey" stroke-width="2" points="1313.82,-24.42 1303.27,-25.45 1312.16,-31.22 1313.82,-24.42"/>
</g>
<!-- 17 -->
<g id="node18" class="node">
<title>17</title>
<path fill="none" stroke="#56d8c9" stroke-width="2" stroke-dasharray="5,2" d="M1461.5,-180C1461.5,-180 1428.5,-180 1428.5,-180 1422.5,-180 1416.5,-174 1416.5,-168 1416.5,-168 1416.5,-156 1416.5,-156 1416.5,-150 1422.5,-144 1428.5,-144 1428.5,-144 1461.5,-144 1461.5,-144 1467.5,-144 1473.5,-150 1473.5,-156 1473.5,-156 1473.5,-168 1473.5,-168 1473.5,-174 1467.5,-180 1461.5,-180"/>
<text text-anchor="middle" x="1445" y="-159.5" font-family="sans" font-size="10.00">bam_sort</text>
</g>
<!-- 17&#45;&gt;16 -->
<g id="edge33" class="edge">
<title>17&#45;&gt;16</title>
<path fill="none" stroke="grey" stroke-width="2" d="M1461.81,-143.7C1470.13,-135.14 1480.31,-124.66 1489.39,-115.3"/>
<polygon fill="grey" stroke="grey" stroke-width="2" points="1491.93,-117.72 1496.38,-108.1 1486.91,-112.84 1491.93,-117.72"/>
</g>
<!-- 30 -->
<g id="node31" class="node">
<title>30</title>
<path fill="none" stroke="#ced856" stroke-width="2" d="M1449,-108C1449,-108 1419,-108 1419,-108 1413,-108 1407,-102 1407,-96 1407,-96 1407,-84 1407,-84 1407,-78 1413,-72 1419,-72 1419,-72 1449,-72 1449,-72 1455,-72 1461,-78 1461,-84 1461,-84 1461,-96 1461,-96 1461,-102 1455,-108 1449,-108"/>
<text text-anchor="middle" x="1434" y="-87.5" font-family="sans" font-size="10.00">callpeak</text>
</g>
<!-- 17&#45;&gt;30 -->
<g id="edge47" class="edge">
<title>17&#45;&gt;30</title>
<path fill="none" stroke="grey" stroke-width="2" d="M1442.28,-143.7C1441.07,-135.98 1439.61,-126.71 1438.26,-118.11"/>
<polygon fill="grey" stroke="grey" stroke-width="2" points="1441.7,-117.44 1436.69,-108.1 1434.78,-118.53 1441.7,-117.44"/>
</g>
<!-- 18&#45;&gt;17 -->
<g id="edge34" class="edge">
<title>18&#45;&gt;17</title>
<path fill="none" stroke="grey" stroke-width="2" d="M1445,-215.7C1445,-207.98 1445,-198.71 1445,-190.11"/>
<polygon fill="grey" stroke="grey" stroke-width="2" points="1448.5,-190.1 1445,-180.1 1441.5,-190.1 1448.5,-190.1"/>
</g>
<!-- 19 -->
<g id="node20" class="node">
<title>19</title>
<path fill="none" stroke="#70d856" stroke-width="2" stroke-dasharray="5,2" d="M1693,-108C1693,-108 1649,-108 1649,-108 1643,-108 1637,-102 1637,-96 1637,-96 1637,-84 1637,-84 1637,-78 1643,-72 1649,-72 1649,-72 1693,-72 1693,-72 1699,-72 1705,-78 1705,-84 1705,-84 1705,-96 1705,-96 1705,-102 1699,-108 1693,-108"/>
<text text-anchor="middle" x="1671" y="-87.5" font-family="sans" font-size="10.00">bam_bigwig</text>
</g>
<!-- 19&#45;&gt;0 -->
<g id="edge11" class="edge">
<title>19&#45;&gt;0</title>
<path fill="none" stroke="grey" stroke-width="2" d="M1636.97,-74.74C1633.96,-73.73 1630.95,-72.79 1628,-72 1515.79,-41.79 1378.52,-27.37 1313.53,-21.84"/>
<polygon fill="grey" stroke="grey" stroke-width="2" points="1313.62,-18.33 1303.37,-20.99 1313.05,-25.31 1313.62,-18.33"/>
</g>
<!-- 20 -->
<g id="node21" class="node">
<title>20</title>
<path fill="none" stroke="#56d8c9" stroke-width="2" stroke-dasharray="5,2" d="M1675.5,-180C1675.5,-180 1642.5,-180 1642.5,-180 1636.5,-180 1630.5,-174 1630.5,-168 1630.5,-168 1630.5,-156 1630.5,-156 1630.5,-150 1636.5,-144 1642.5,-144 1642.5,-144 1675.5,-144 1675.5,-144 1681.5,-144 1687.5,-150 1687.5,-156 1687.5,-156 1687.5,-168 1687.5,-168 1687.5,-174 1681.5,-180 1675.5,-180"/>
<text text-anchor="middle" x="1659" y="-159.5" font-family="sans" font-size="10.00">bam_sort</text>
</g>
<!-- 20&#45;&gt;19 -->
<g id="edge36" class="edge">
<title>20&#45;&gt;19</title>
<path fill="none" stroke="grey" stroke-width="2" d="M1661.97,-143.7C1663.29,-135.98 1664.88,-126.71 1666.35,-118.11"/>
<polygon fill="grey" stroke="grey" stroke-width="2" points="1669.83,-118.55 1668.07,-108.1 1662.93,-117.37 1669.83,-118.55"/>
</g>
<!-- 31 -->
<g id="node32" class="node">
<title>31</title>
<path fill="none" stroke="#ced856" stroke-width="2" d="M1607,-108C1607,-108 1577,-108 1577,-108 1571,-108 1565,-102 1565,-96 1565,-96 1565,-84 1565,-84 1565,-78 1571,-72 1577,-72 1577,-72 1607,-72 1607,-72 1613,-72 1619,-78 1619,-84 1619,-84 1619,-96 1619,-96 1619,-102 1613,-108 1607,-108"/>
<text text-anchor="middle" x="1592" y="-87.5" font-family="sans" font-size="10.00">callpeak</text>
</g>
<!-- 20&#45;&gt;31 -->
<g id="edge48" class="edge">
<title>20&#45;&gt;31</title>
<path fill="none" stroke="grey" stroke-width="2" d="M1642.44,-143.7C1634.32,-135.22 1624.41,-124.86 1615.53,-115.58"/>
<polygon fill="grey" stroke="grey" stroke-width="2" points="1617.81,-112.91 1608.37,-108.1 1612.76,-117.75 1617.81,-112.91"/>
</g>
<!-- 21&#45;&gt;20 -->
<g id="edge37" class="edge">
<title>21&#45;&gt;20</title>
<path fill="none" stroke="grey" stroke-width="2" d="M1659,-215.7C1659,-207.98 1659,-198.71 1659,-190.11"/>
<polygon fill="grey" stroke="grey" stroke-width="2" points="1662.5,-190.1 1659,-180.1 1655.5,-190.1 1662.5,-190.1"/>
</g>
<!-- 22 -->
<g id="node23" class="node">
<title>22</title>
<path fill="none" stroke="#70d856" stroke-width="2" stroke-dasharray="5,2" d="M1851,-108C1851,-108 1807,-108 1807,-108 1801,-108 1795,-102 1795,-96 1795,-96 1795,-84 1795,-84 1795,-78 1801,-72 1807,-72 1807,-72 1851,-72 1851,-72 1857,-72 1863,-78 1863,-84 1863,-84 1863,-96 1863,-96 1863,-102 1857,-108 1851,-108"/>
<text text-anchor="middle" x="1829" y="-87.5" font-family="sans" font-size="10.00">bam_bigwig</text>
</g>
<!-- 22&#45;&gt;0 -->
<g id="edge12" class="edge">
<title>22&#45;&gt;0</title>
<path fill="none" stroke="grey" stroke-width="2" d="M1794.53,-74.44C1791.67,-73.52 1788.81,-72.69 1786,-72 1612.9,-29.64 1398.66,-21.12 1313.47,-19.42"/>
<polygon fill="grey" stroke="grey" stroke-width="2" points="1313.32,-15.92 1303.26,-19.24 1313.2,-22.91 1313.32,-15.92"/>
</g>
<!-- 23 -->
<g id="node24" class="node">
<title>23</title>
<path fill="none" stroke="#56d8c9" stroke-width="2" stroke-dasharray="5,2" d="M1845.5,-180C1845.5,-180 1812.5,-180 1812.5,-180 1806.5,-180 1800.5,-174 1800.5,-168 1800.5,-168 1800.5,-156 1800.5,-156 1800.5,-150 1806.5,-144 1812.5,-144 1812.5,-144 1845.5,-144 1845.5,-144 1851.5,-144 1857.5,-150 1857.5,-156 1857.5,-156 1857.5,-168 1857.5,-168 1857.5,-174 1851.5,-180 1845.5,-180"/>
<text text-anchor="middle" x="1829" y="-159.5" font-family="sans" font-size="10.00">bam_sort</text>
</g>
<!-- 23&#45;&gt;22 -->
<g id="edge39" class="edge">
<title>23&#45;&gt;22</title>
<path fill="none" stroke="grey" stroke-width="2" d="M1829,-143.7C1829,-135.98 1829,-126.71 1829,-118.11"/>
<polygon fill="grey" stroke="grey" stroke-width="2" points="1832.5,-118.1 1829,-108.1 1825.5,-118.1 1832.5,-118.1"/>
</g>
<!-- 32 -->
<g id="node33" class="node">
<title>32</title>
<path fill="none" stroke="#ced856" stroke-width="2" d="M1765,-108C1765,-108 1735,-108 1735,-108 1729,-108 1723,-102 1723,-96 1723,-96 1723,-84 1723,-84 1723,-78 1729,-72 1735,-72 1735,-72 1765,-72 1765,-72 1771,-72 1777,-78 1777,-84 1777,-84 1777,-96 1777,-96 1777,-102 1771,-108 1765,-108"/>
<text text-anchor="middle" x="1750" y="-87.5" font-family="sans" font-size="10.00">callpeak</text>
</g>
<!-- 23&#45;&gt;32 -->
<g id="edge49" class="edge">
<title>23&#45;&gt;32</title>
<path fill="none" stroke="grey" stroke-width="2" d="M1809.47,-143.7C1799.62,-134.97 1787.51,-124.24 1776.8,-114.75"/>
<polygon fill="grey" stroke="grey" stroke-width="2" points="1779.11,-112.12 1769.3,-108.1 1774.47,-117.36 1779.11,-112.12"/>
</g>
<!-- 24&#45;&gt;23 -->
<g id="edge40" class="edge">
<title>24&#45;&gt;23</title>
<path fill="none" stroke="grey" stroke-width="2" d="M1859.87,-215.7C1855.15,-207.64 1849.44,-197.89 1844.22,-188.98"/>
<polygon fill="grey" stroke="grey" stroke-width="2" points="1847.09,-186.96 1839.02,-180.1 1841.05,-190.5 1847.09,-186.96"/>
</g>
<!-- 25 -->
<g id="node26" class="node">
<title>25</title>
<path fill="none" stroke="#70d856" stroke-width="2" stroke-dasharray="5,2" d="M2009,-108C2009,-108 1965,-108 1965,-108 1959,-108 1953,-102 1953,-96 1953,-96 1953,-84 1953,-84 1953,-78 1959,-72 1965,-72 1965,-72 2009,-72 2009,-72 2015,-72 2021,-78 2021,-84 2021,-84 2021,-96 2021,-96 2021,-102 2015,-108 2009,-108"/>
<text text-anchor="middle" x="1987" y="-87.5" font-family="sans" font-size="10.00">bam_bigwig</text>
</g>
<!-- 25&#45;&gt;0 -->
<g id="edge13" class="edge">
<title>25&#45;&gt;0</title>
<path fill="none" stroke="grey" stroke-width="2" d="M1952.55,-74.36C1949.69,-73.46 1946.82,-72.65 1944,-72 1822.44,-43.81 1435.52,-25.65 1313.35,-20.5"/>
<polygon fill="grey" stroke="grey" stroke-width="2" points="1313.16,-16.99 1303.02,-20.07 1312.87,-23.99 1313.16,-16.99"/>
</g>
<!-- 26 -->
<g id="node27" class="node">
<title>26</title>
<path fill="none" stroke="#56d8c9" stroke-width="2" stroke-dasharray="5,2" d="M2003.5,-180C2003.5,-180 1970.5,-180 1970.5,-180 1964.5,-180 1958.5,-174 1958.5,-168 1958.5,-168 1958.5,-156 1958.5,-156 1958.5,-150 1964.5,-144 1970.5,-144 1970.5,-144 2003.5,-144 2003.5,-144 2009.5,-144 2015.5,-150 2015.5,-156 2015.5,-156 2015.5,-168 2015.5,-168 2015.5,-174 2009.5,-180 2003.5,-180"/>
<text text-anchor="middle" x="1987" y="-159.5" font-family="sans" font-size="10.00">bam_sort</text>
</g>
<!-- 26&#45;&gt;25 -->
<g id="edge42" class="edge">
<title>26&#45;&gt;25</title>
<path fill="none" stroke="grey" stroke-width="2" d="M1987,-143.7C1987,-135.98 1987,-126.71 1987,-118.11"/>
<polygon fill="grey" stroke="grey" stroke-width="2" points="1990.5,-118.1 1987,-108.1 1983.5,-118.1 1990.5,-118.1"/>
</g>
<!-- 33 -->
<g id="node34" class="node">
<title>33</title>
<path fill="none" stroke="#ced856" stroke-width="2" d="M1923,-108C1923,-108 1893,-108 1893,-108 1887,-108 1881,-102 1881,-96 1881,-96 1881,-84 1881,-84 1881,-78 1887,-72 1893,-72 1893,-72 1923,-72 1923,-72 1929,-72 1935,-78 1935,-84 1935,-84 1935,-96 1935,-96 1935,-102 1929,-108 1923,-108"/>
<text text-anchor="middle" x="1908" y="-87.5" font-family="sans" font-size="10.00">callpeak</text>
</g>
<!-- 26&#45;&gt;33 -->
<g id="edge50" class="edge">
<title>26&#45;&gt;33</title>
<path fill="none" stroke="grey" stroke-width="2" d="M1967.47,-143.7C1957.62,-134.97 1945.51,-124.24 1934.8,-114.75"/>
<polygon fill="grey" stroke="grey" stroke-width="2" points="1937.11,-112.12 1927.3,-108.1 1932.47,-117.36 1937.11,-112.12"/>
</g>
<!-- 27&#45;&gt;26 -->
<g id="edge43" class="edge">
<title>27&#45;&gt;26</title>
<path fill="none" stroke="grey" stroke-width="2" d="M2049.48,-215.7C2039.13,-206.97 2026.41,-196.24 2015.16,-186.75"/>
<polygon fill="grey" stroke="grey" stroke-width="2" points="2017.18,-183.88 2007.28,-180.1 2012.67,-189.23 2017.18,-183.88"/>
</g>
<!-- 28&#45;&gt;0 -->
<g id="edge14" class="edge">
<title>28&#45;&gt;0</title>
<path fill="none" stroke="grey" stroke-width="2" d="M1145.08,-76.1C1148.09,-74.7 1151.1,-73.31 1154,-72 1182.6,-59.04 1215.23,-44.9 1239.54,-34.48"/>
<polygon fill="grey" stroke="grey" stroke-width="2" points="1240.94,-37.69 1248.76,-30.55 1238.19,-31.26 1240.94,-37.69"/>
</g>
<!-- 29&#45;&gt;0 -->
<g id="edge15" class="edge">
<title>29&#45;&gt;0</title>
<path fill="none" stroke="grey" stroke-width="2" d="M1276,-71.7C1276,-63.98 1276,-54.71 1276,-46.11"/>
<polygon fill="grey" stroke="grey" stroke-width="2" points="1279.5,-46.1 1276,-36.1 1272.5,-46.1 1279.5,-46.1"/>
</g>
<!-- 30&#45;&gt;0 -->
<g id="edge16" class="edge">
<title>30&#45;&gt;0</title>
<path fill="none" stroke="grey" stroke-width="2" d="M1406.92,-76.1C1403.91,-74.7 1400.9,-73.31 1398,-72 1369.4,-59.04 1336.77,-44.9 1312.46,-34.48"/>
<polygon fill="grey" stroke="grey" stroke-width="2" points="1313.81,-31.26 1303.24,-30.55 1311.06,-37.69 1313.81,-31.26"/>
</g>
<!-- 31&#45;&gt;0 -->
<g id="edge17" class="edge">
<title>31&#45;&gt;0</title>
<path fill="none" stroke="grey" stroke-width="2" d="M1564.78,-75.27C1561.85,-74.06 1558.89,-72.94 1556,-72 1471.52,-44.56 1367.83,-29.54 1313.41,-23.02"/>
<polygon fill="grey" stroke="grey" stroke-width="2" points="1313.55,-19.51 1303.21,-21.82 1312.73,-26.46 1313.55,-19.51"/>
</g>
<!-- 32&#45;&gt;0 -->
<g id="edge18" class="edge">
<title>32&#45;&gt;0</title>
<path fill="none" stroke="grey" stroke-width="2" d="M1722.84,-75.07C1719.9,-73.9 1716.92,-72.84 1714,-72 1569.73,-30.39 1389.58,-21.43 1313.1,-19.51"/>
<polygon fill="grey" stroke="grey" stroke-width="2" points="1313.08,-16.01 1303.01,-19.29 1312.92,-23.01 1313.08,-16.01"/>
</g>
<!-- 33&#45;&gt;0 -->
<g id="edge19" class="edge">
<title>33&#45;&gt;0</title>
<path fill="none" stroke="grey" stroke-width="2" d="M1880.86,-74.97C1877.92,-73.82 1874.94,-72.8 1872,-72 1765.77,-43.18 1427.01,-25.76 1313.49,-20.61"/>
<polygon fill="grey" stroke="grey" stroke-width="2" points="1313.37,-17.1 1303.22,-20.15 1313.05,-24.09 1313.37,-17.1"/>
</g>
</g>
</svg>
