<?xml version="1.0" encoding="UTF-8" standalone="no"?>
<!DOCTYPE svg PUBLIC "-//W3C//DTD SVG 1.1//EN"
 "http://www.w3.org/Graphics/SVG/1.1/DTD/svg11.dtd">
<!-- Generated by graphviz version 2.47.2 (0)
 -->
<!-- Title: snakemake_dag Pages: 1 -->
<svg width="275pt" height="404pt"
 viewBox="0.00 0.00 274.50 404.00" xmlns="http://www.w3.org/2000/svg" xmlns:xlink="http://www.w3.org/1999/xlink">
<g id="graph0" class="graph" transform="scale(1 1) rotate(0) translate(4 400)">
<title>snakemake_dag</title>
<polygon fill="white" stroke="transparent" points="-4,4 -4,-400 270.5,-400 270.5,4 -4,4"/>
<!-- 0 -->
<g id="node1" class="node">
<title>0</title>
<path fill="none" stroke="#ced856" stroke-width="2" d="M129.5,-36C129.5,-36 99.5,-36 99.5,-36 93.5,-36 87.5,-30 87.5,-24 87.5,-24 87.5,-12 87.5,-12 87.5,-6 93.5,0 99.5,0 99.5,0 129.5,0 129.5,0 135.5,0 141.5,-6 141.5,-12 141.5,-12 141.5,-24 141.5,-24 141.5,-30 135.5,-36 129.5,-36"/>
<text text-anchor="middle" x="114.5" y="-15.5" font-family="sans" font-size="10.00">all</text>
</g>
<!-- 1 -->
<g id="node2" class="node">
<title>1</title>
<path fill="none" stroke="#56d8c9" stroke-width="2" d="M96,-108C96,-108 43,-108 43,-108 37,-108 31,-102 31,-96 31,-96 31,-84 31,-84 31,-78 37,-72 43,-72 43,-72 96,-72 96,-72 102,-72 108,-78 108,-84 108,-84 108,-96 108,-96 108,-102 102,-108 96,-108"/>
<text text-anchor="middle" x="69.5" y="-87.5" font-family="sans" font-size="10.00">reads_multiqc</text>
</g>
<!-- 1&#45;&gt;0 -->
<g id="edge4" class="edge">
<title>1&#45;&gt;0</title>
<path fill="none" stroke="grey" stroke-width="2" d="M80.62,-71.7C85.86,-63.56 92.2,-53.69 97.98,-44.7"/>
<polygon fill="grey" stroke="grey" stroke-width="2" points="101.04,-46.41 103.5,-36.1 95.15,-42.62 101.04,-46.41"/>
</g>
<!-- 2 -->
<g id="node3" class="node">
<title>2</title>
<path fill="none" stroke="#70d856" stroke-width="2" d="M61,-180C61,-180 12,-180 12,-180 6,-180 0,-174 0,-168 0,-168 0,-156 0,-156 0,-150 6,-144 12,-144 12,-144 61,-144 61,-144 67,-144 73,-150 73,-156 73,-156 73,-168 73,-168 73,-174 67,-180 61,-180"/>
<text text-anchor="middle" x="36.5" y="-159.5" font-family="sans" font-size="10.00">reads_fastqc</text>
</g>
<!-- 2&#45;&gt;0 -->
<g id="edge2" class="edge">
<title>2&#45;&gt;0</title>
<path fill="none" stroke="grey" stroke-width="2" d="M27.24,-143.73C18.5,-124.86 8.51,-94.35 21.5,-72 33.59,-51.19 57.24,-37.88 77.67,-29.79"/>
<polygon fill="grey" stroke="grey" stroke-width="2" points="78.89,-33.07 87.07,-26.34 76.48,-26.5 78.89,-33.07"/>
</g>
<!-- 2&#45;&gt;1 -->
<g id="edge5" class="edge">
<title>2&#45;&gt;1</title>
<path fill="none" stroke="grey" stroke-width="2" d="M44.66,-143.7C48.41,-135.73 52.95,-126.1 57.12,-117.26"/>
<polygon fill="grey" stroke="grey" stroke-width="2" points="60.34,-118.64 61.44,-108.1 54.01,-115.66 60.34,-118.64"/>
</g>
<!-- 3 -->
<g id="node4" class="node">
<title>3</title>
<path fill="none" stroke="#d85656" stroke-width="2" d="M182.5,-108C182.5,-108 138.5,-108 138.5,-108 132.5,-108 126.5,-102 126.5,-96 126.5,-96 126.5,-84 126.5,-84 126.5,-78 132.5,-72 138.5,-72 138.5,-72 182.5,-72 182.5,-72 188.5,-72 194.5,-78 194.5,-84 194.5,-84 194.5,-96 194.5,-96 194.5,-102 188.5,-108 182.5,-108"/>
<text text-anchor="middle" x="160.5" y="-87.5" font-family="sans" font-size="10.00">bam_bigwig</text>
</g>
<!-- 3&#45;&gt;0 -->
<g id="edge3" class="edge">
<title>3&#45;&gt;0</title>
<path fill="none" stroke="grey" stroke-width="2" d="M149.13,-71.7C143.78,-63.56 137.3,-53.69 131.39,-44.7"/>
<polygon fill="grey" stroke="grey" stroke-width="2" points="134.16,-42.54 125.74,-36.1 128.31,-46.38 134.16,-42.54"/>
</g>
<!-- 4 -->
<g id="node5" class="node">
<title>4</title>
<path fill="none" stroke="#5682d8" stroke-width="2" d="M216,-180C216,-180 183,-180 183,-180 177,-180 171,-174 171,-168 171,-168 171,-156 171,-156 171,-150 177,-144 183,-144 183,-144 216,-144 216,-144 222,-144 228,-150 228,-156 228,-156 228,-168 228,-168 228,-174 222,-180 216,-180"/>
<text text-anchor="middle" x="199.5" y="-159.5" font-family="sans" font-size="10.00">bam_sort</text>
</g>
<!-- 4&#45;&gt;3 -->
<g id="edge6" class="edge">
<title>4&#45;&gt;3</title>
<path fill="none" stroke="grey" stroke-width="2" d="M189.86,-143.7C185.37,-135.64 179.94,-125.89 174.98,-116.98"/>
<polygon fill="grey" stroke="grey" stroke-width="2" points="177.95,-115.14 170.03,-108.1 171.84,-118.54 177.95,-115.14"/>
</g>
<!-- 8 -->
<g id="node9" class="node">
<title>8</title>
<path fill="none" stroke="#d8b456" stroke-width="2" d="M254.5,-108C254.5,-108 224.5,-108 224.5,-108 218.5,-108 212.5,-102 212.5,-96 212.5,-96 212.5,-84 212.5,-84 212.5,-78 218.5,-72 224.5,-72 224.5,-72 254.5,-72 254.5,-72 260.5,-72 266.5,-78 266.5,-84 266.5,-84 266.5,-96 266.5,-96 266.5,-102 260.5,-108 254.5,-108"/>
<text text-anchor="middle" x="239.5" y="-87.5" font-family="sans" font-size="10.00">callpeak</text>
</g>
<!-- 4&#45;&gt;8 -->
<g id="edge10" class="edge">
<title>4&#45;&gt;8</title>
<path fill="none" stroke="grey" stroke-width="2" d="M209.39,-143.7C213.99,-135.64 219.56,-125.89 224.65,-116.98"/>
<polygon fill="grey" stroke="grey" stroke-width="2" points="227.8,-118.52 229.73,-108.1 221.73,-115.05 227.8,-118.52"/>
</g>
<!-- 5 -->
<g id="node6" class="node">
<title>5</title>
<path fill="none" stroke="#56d89a" stroke-width="2" d="M228.5,-252C228.5,-252 170.5,-252 170.5,-252 164.5,-252 158.5,-246 158.5,-240 158.5,-240 158.5,-228 158.5,-228 158.5,-222 164.5,-216 170.5,-216 170.5,-216 228.5,-216 228.5,-216 234.5,-216 240.5,-222 240.5,-228 240.5,-228 240.5,-240 240.5,-240 240.5,-246 234.5,-252 228.5,-252"/>
<text text-anchor="middle" x="199.5" y="-231.5" font-family="sans" font-size="10.00">align_reads_se</text>
</g>
<!-- 5&#45;&gt;4 -->
<g id="edge7" class="edge">
<title>5&#45;&gt;4</title>
<path fill="none" stroke="grey" stroke-width="2" d="M199.5,-215.7C199.5,-207.98 199.5,-198.71 199.5,-190.11"/>
<polygon fill="grey" stroke="grey" stroke-width="2" points="203,-190.1 199.5,-180.1 196,-190.1 203,-190.1"/>
</g>
<!-- 6 -->
<g id="node7" class="node">
<title>6</title>
<path fill="none" stroke="#56b1d8" stroke-width="2" d="M227,-324C227,-324 172,-324 172,-324 166,-324 160,-318 160,-312 160,-312 160,-300 160,-300 160,-294 166,-288 172,-288 172,-288 227,-288 227,-288 233,-288 239,-294 239,-300 239,-300 239,-312 239,-312 239,-318 233,-324 227,-324"/>
<text text-anchor="middle" x="199.5" y="-303.5" font-family="sans" font-size="10.00">bowtie2_index</text>
</g>
<!-- 6&#45;&gt;5 -->
<g id="edge8" class="edge">
<title>6&#45;&gt;5</title>
<path fill="none" stroke="grey" stroke-width="2" d="M199.5,-287.7C199.5,-279.98 199.5,-270.71 199.5,-262.11"/>
<polygon fill="grey" stroke="grey" stroke-width="2" points="203,-262.1 199.5,-252.1 196,-262.1 203,-262.1"/>
</g>
<!-- 7 -->
<g id="node8" class="node">
<title>7</title>
<path fill="none" stroke="#d88556" stroke-width="2" d="M239.5,-396C239.5,-396 159.5,-396 159.5,-396 153.5,-396 147.5,-390 147.5,-384 147.5,-384 147.5,-372 147.5,-372 147.5,-366 153.5,-360 159.5,-360 159.5,-360 239.5,-360 239.5,-360 245.5,-360 251.5,-366 251.5,-372 251.5,-372 251.5,-384 251.5,-384 251.5,-390 245.5,-396 239.5,-396"/>
<text text-anchor="middle" x="199.5" y="-375.5" font-family="sans" font-size="10.00">download_reference</text>
</g>
<!-- 7&#45;&gt;6 -->
<g id="edge9" class="edge">
<title>7&#45;&gt;6</title>
<path fill="none" stroke="grey" stroke-width="2" d="M199.5,-359.7C199.5,-351.98 199.5,-342.71 199.5,-334.11"/>
<polygon fill="grey" stroke="grey" stroke-width="2" points="203,-334.1 199.5,-324.1 196,-334.1 203,-334.1"/>
</g>
<!-- 8&#45;&gt;0 -->
<g id="edge1" class="edge">
<title>8&#45;&gt;0</title>
<path fill="none" stroke="grey" stroke-width="2" d="M212.38,-73.81C194.19,-63.63 170.06,-50.11 150.3,-39.05"/>
<polygon fill="grey" stroke="grey" stroke-width="2" points="152.01,-35.99 141.57,-34.16 148.59,-42.1 152.01,-35.99"/>
</g>
</g>
</svg>
